<?xml version="1.0" encoding="utf-8" ?>
<svg baseProfile="tiny" height="233" version="1.2" width="252" xmlns="http://www.w3.org/2000/svg" xmlns:ev="http://www.w3.org/2001/xml-events" xmlns:xlink="http://www.w3.org/1999/xlink"><defs><linearGradient id="grad1" x1="0" x2="0" y1="0" y2="1"><stop offset="0.0" stop-color="#00B2FF" /><stop offset="1.0" stop-color="#7B2FFF" /></linearGradient></defs><path d="M 72,0 L 71,1 L 66,1 L 65,2 L 63,2 L 62,3 L 60,3 L 59,4 L 58,4 L 57,5 L 56,5 L 54,7 L 53,7 L 51,9 L 50,9 L 21,38 L 21,39 L 19,41 L 19,42 L 18,43 L 18,44 L 17,45 L 17,46 L 16,47 L 16,48 L 15,49 L 15,52 L 14,53 L 14,67 L 15,68 L 15,70 L 16,71 L 16,73 L 17,74 L 17,75 L 18,76 L 18,77 L 20,79 L 20,80 L 22,82 L 22,83 L 23,84 L 23,85 L 34,96 L 34,97 L 35,98 L 35,100 L 36,101 L 36,103 L 37,104 L 37,105 L 32,110 L 32,111 L 30,113 L 30,114 L 29,115 L 29,116 L 28,117 L 28,118 L 27,119 L 27,121 L 26,122 L 26,125 L 25,126 L 25,137 L 26,138 L 26,141 L 27,142 L 27,144 L 28,145 L 28,146 L 29,147 L 29,148 L 30,149 L 30,150 L 32,152 L 32,153 L 34,155 L 34,156 L 38,160 L 38,161 L 39,161 L 44,166 L 44,167 L 49,172 L 50,172 L 53,175 L 53,176 L 54,176 L 56,178 L 56,179 L 59,182 L 60,182 L 62,184 L 62,185 L 63,185 L 78,200 L 78,201 L 79,201 L 80,202 L 80,203 L 81,203 L 86,208 L 86,209 L 87,210 L 88,210 L 90,212 L 90,213 L 91,213 L 92,214 L 92,215 L 93,215 L 95,217 L 95,218 L 96,219 L 97,219 L 100,222 L 100,223 L 101,223 L 108,230 L 109,230 L 110,231 L 111,231 L 112,232 L 137,232 L 138,231 L 139,231 L 141,229 L 142,229 L 144,227 L 145,227 L 183,189 L 183,188 L 184,187 L 185,187 L 200,172 L 200,171 L 201,170 L 202,170 L 202,169 L 203,168 L 204,168 L 213,159 L 213,158 L 216,155 L 216,154 L 217,153 L 217,152 L 219,150 L 219,149 L 221,147 L 221,145 L 222,144 L 222,142 L 223,141 L 223,139 L 224,138 L 224,125 L 223,124 L 223,121 L 222,120 L 222,118 L 221,117 L 221,116 L 220,115 L 220,114 L 218,112 L 218,111 L 213,106 L 213,104 L 218,99 L 218,98 L 220,96 L 220,94 L 221,93 L 221,91 L 223,89 L 223,88 L 226,85 L 226,84 L 228,82 L 228,81 L 230,79 L 230,78 L 231,77 L 231,76 L 232,75 L 232,74 L 233,73 L 233,72 L 234,71 L 234,68 L 235,67 L 235,52 L 234,51 L 234,49 L 233,48 L 233,46 L 232,45 L 232,44 L 231,43 L 231,42 L 228,39 L 228,38 L 198,8 L 197,8 L 195,6 L 194,6 L 193,5 L 192,5 L 191,4 L 190,4 L 189,3 L 187,3 L 186,2 L 184,2 L 183,1 L 178,1 L 177,0 L 170,0 L 169,1 L 164,1 L 163,2 L 161,2 L 160,3 L 158,3 L 157,4 L 156,4 L 155,5 L 154,5 L 153,6 L 152,6 L 149,9 L 148,9 L 142,15 L 142,16 L 139,19 L 139,20 L 138,21 L 138,22 L 137,23 L 137,24 L 136,25 L 136,27 L 135,28 L 135,30 L 134,31 L 134,36 L 133,37 L 133,45 L 134,46 L 134,50 L 135,51 L 135,54 L 136,55 L 136,56 L 137,57 L 137,59 L 138,60 L 138,61 L 140,63 L 140,64 L 142,66 L 142,67 L 144,69 L 144,70 L 148,74 L 148,75 L 158,85 L 159,85 L 160,86 L 160,87 L 165,92 L 166,92 L 167,93 L 167,94 L 168,94 L 170,96 L 171,96 L 173,98 L 173,99 L 175,101 L 175,102 L 174,103 L 174,104 L 127,151 L 126,151 L 125,152 L 124,152 L 74,102 L 74,101 L 75,100 L 75,99 L 77,97 L 78,97 L 80,95 L 81,95 L 104,72 L 104,71 L 106,69 L 106,68 L 108,66 L 108,65 L 110,63 L 110,62 L 111,61 L 111,60 L 112,59 L 112,58 L 113,57 L 113,56 L 114,55 L 114,52 L 115,51 L 115,48 L 116,47 L 116,35 L 115,34 L 115,30 L 114,29 L 114,27 L 113,26 L 113,25 L 112,24 L 112,23 L 111,22 L 111,21 L 110,20 L 110,19 L 108,17 L 108,16 L 100,8 L 99,8 L 97,6 L 96,6 L 95,5 L 94,5 L 93,4 L 92,4 L 91,3 L 89,3 L 88,2 L 86,2 L 85,1 L 80,1 L 79,0 Z" fill="url(#grad1)" stroke="none" /></svg>