<?xml version="1.0"?><svg version="1.2" baseProfile="tiny-ps" viewBox="0 0 116 116" xmlns="http://www.w3.org/2000/svg" xmlns:xlink="http://www.w3.org/1999/xlink"><title>Perdigon</title><g><g fill="#04bcfe" transform="matrix(.1 0 0 -.1 0 116)"><path d="M285 1151c-49-12-66-25-156-118l-87-88-11-43-12-42 11-42 12-41 56-59 56-59-12-17c-37-52-53-80-58-109l-6-33 7-37 7-38 190-192L473 41l33-16 32-15h83l32 14 32 14 192 193 191 194 7 38 7 38-5 36-6 36-32 39-31 39 18 22c11 12 35 41 56 64l37 41 12 41 12 41-13 42-12 43-87 88c-47 49-99 96-116 105l-30 15H765l-31-16c-17-9-45-32-62-51l-31-35-10-38c-14-48-14-68 0-118l11-40 94-96c52-52 94-99 94-105 0-5-53-62-118-127L595 410h-30L448 527c-65 65-118 122-118 128s39 49 86 95l86 85 19 40 19 40v80l-19 40-18 40-36 32-36 32-38 10c-42 12-64 12-108 2zm110-136 25-24v-76l-90-90-91-90-49 52-50 52v48l79 76 79 77h73l24-25zm546-52 79-76v-53l-50-49-51-50-89 91-90 91v74l25 24 24 25h73l79-77zM261 543c8-9 71-69 141-135l127-118h97l24 16c14 9 80 71 146 136l121 120 20-11c24-12 33-39 22-66-4-11-85-98-181-192L604 120h-48L378 297 200 474v55l16 15c20 20 28 20 45-1z"/></g><g fill="#13a1f1" transform="matrix(.1 0 0 -.1 0 116)"><path d="M305 1155c-5-2-23-6-38-9l-28-7-44-40c-25-23-52-55-60-73l-16-31 26-22 25-22 18 6 17 6-20-24c-11-13 10 4 47 39l66 62h73l24-25 25-24v-77l-38-37-39-38 2-19c2-24 30-56 55-63l18-5 46 47 45 46 16 37 15 37v76l-19 40-18 40-36 32-36 32-38 10c-37 11-68 13-88 6zm470-4c-45-11-69-27-103-65l-31-35-10-38c-14-48-14-68 0-117l11-39 43-46 44-47 24-2 24-2 21 23 21 22-2 17c-2 9-20 34-40 57l-37 41v71l25 24 24 25h73l71-67c40-38 61-55 47-39l-25 28 21-6 20-6 23 24 23 24-15 28c-17 32-81 96-112 112-11 5-40 12-65 15l-45 6-30-8zm58-653L631 297l-56 5-57 5-178 178-179 179-21-25c-12-13-30-42-40-64l-20-40v-32c0-17 5-44 11-60l10-28 187-187L474 40l32-15 32-15h83l32 14 32 14 192 193 191 194 7 38 7 38-5 36-6 36-32 39-31 39 18 20c9 10 15 21 13 24-3 2-95-86-206-197zm-572 45c8-9 71-69 141-135l127-118h97l24 16c14 9 80 71 146 136l121 120 20-11c24-12 33-39 22-66-4-11-85-98-181-192L604 120h-48L378 297 200 474v55l16 15c20 20 28 20 45-1z"/></g><g fill="#2089e8" transform="matrix(.1 0 0 -.1 0 116)"><path d="M285 1151c-16-4-40-13-51-19l-22-11-7-28-6-27 23-18c13-10 29-18 36-18h13l-7-12-7-11 24 16 23 17h67l24-25 25-24V877l24-22c13-12 31-22 41-22h17l19 41 19 41v80l-19 40-18 40-36 32-36 32-38 10c-42 12-64 12-108 2zm490 0c-45-11-69-27-103-65l-31-36-12-42-11-42 6-39c4-22 13-52 21-67l15-29 22 4c12 3 31 13 41 24l20 19-2 57-1 56 25 24 24 25h67l23-17 24-16-7 11-7 12h13c8 0 25 9 40 21l26 21-14 27-14 28-24 11c-13 6-43 13-67 16l-44 5-30-8zm75-648L665 315l126 124 126 123 20-11 20-10 33 40 32 40-6 16-6 16 16 18c10 11 15 19 13 19s-87-84-189-187zM146 643l-6-16 32-47 32-47 14 13c7 8 16 14 20 14s42-35 86-77l80-78-106 113c-58 63-115 120-126 128l-20 14-6-17zM91 497l-13-25 16-34 16-34 188-186L485 31l28-10c36-14 98-14 134-1l28 11 189 187 188 187 14 31 13 32-12 26-12 26h-65v-22l-13 10-13 11-1-22-2-22-179-177-178-178h-48L378 297 200 474v42l-48 3-48 2-13-24zm423-191c11-9 27-16 35-15l16 1-15 5c-8 3-24 10-35 15l-20 9 19-15zm94-13c7-3 16-2 19 1 4 3-2 6-13 5l-19-1 13-5z"/></g><g fill="#447c9b" transform="matrix(.1 0 0 -.1 0 116)"><path d="M330 1149c-19-4-38-5-42-3l-8 5v-29l35-31c20-17 40-31 46-31s42-31 80-70c39-38 74-70 78-70 5 0 12 16 15 34l7 35-16 38c-26 61-75 106-134 122l-26 7-35-7zm445 1c-44-9-68-25-103-64l-31-35-10-37-10-36 5-28 6-28 19 5 19 5 47 55c27 30 62 61 78 70 32 16 85 62 85 74 0 3-17 11-37 16l-38 9-30-6zm75-647L665 315l126 124 127 124 12-8 11-7 37 43c20 24 36 47 34 52s5 18 14 28c9 11 15 19 13 19s-87-84-189-187zM150 642v-18l38-37 38-37 7 7 8 7 82-79c45-44 26-23-43 48-69 70-126 127-127 127-2 0-3-8-3-18zm-13-246-5-13 176-176L485 31l28-10c36-14 98-14 134-1l28 11 173 172 172 172v35h-97l-44-31c-24-17-96-83-160-145L603 120h-46L436 238c-67 65-138 130-158 145l-37 27h-99l-5-14z"/></g><g fill="#2a70e0" transform="matrix(.1 0 0 -.1 0 116)"><path d="M330 1149c-19-4-38-5-42-3l-8 5v-29l35-31c20-17 40-31 46-31s42-31 80-70c39-38 74-70 78-70 5 0 12 16 15 34l7 35-16 38c-26 61-75 106-134 122l-26 7-35-7zm445 1c-44-9-68-25-103-64l-31-35-10-37-10-36 5-28 6-28 19 5 19 5 47 55c27 30 62 61 78 70 32 16 85 62 85 74 0 3-17 11-37 16l-38 9-30-6zm209-542-29-33 33 29c30 28 37 36 29 36-2 0-16-15-33-32zm-804-13c19-19 36-35 39-35s-10 16-29 35-36 35-39 35 10-16 29-35zm760-36v-10l10 6c6 3 10 8 10 11 0 2-4 4-10 4-5 0-10-5-10-11zM137 396l-5-13 176-176L485 31l28-10c36-14 98-14 134-1l28 11 173 172 172 172v35h-97l-44-31c-24-17-96-83-160-145L603 120h-46L436 238c-67 65-138 130-158 145l-37 27h-99l-5-14z"/></g><g fill="#4647d8" transform="matrix(.1 0 0 -.1 0 116)"><path d="M290 237c0-7 44-57 98-110l98-96 28-11c35-13 97-13 133 1l28 10 103 102c56 56 102 105 102 109v8H759l-27-17c-15-9-50-39-79-65l-52-48h-42l-52 48c-29 26-64 56-79 65l-27 17H290v-13z"/></g></g></svg>