<?xml version="1.0"?><svg version="1.2" baseProfile="tiny-ps" viewBox="0 0 245 245" xmlns="http://www.w3.org/2000/svg" xmlns:xlink="http://www.w3.org/1999/xlink"><title>Perdigon2</title><g><g fill="#58c1f8" transform="matrix(.1 0 0 -.1 0 245)"><path d="m650 2439-55-9-55-27-55-27-165-166-166-165-24-50-25-50v-180l27-58 27-57 100-104c56-56 101-106 101-111 0-4-21-30-46-57l-45-49-27-57-27-57v-160l32-65 32-65 373-371 373-371 58-22 58-21h138l58 21 58 22 373 371 373 371 23 40c13 22 29 61 36 88l13 47-5 63-5 63-22 50-22 49-38 40c-20 22-43 48-50 57l-13 18 110 115 110 115 21 55 21 56v138l-22 58-21 58-166 168-165 168-61 29-60 29-62 10-63 10-62-10-63-10-55-27-55-27-50-50-50-50-27-55-27-55-10-62-10-63 10-62 10-63 25-55 25-55 182-183 182-182-250-250-250-250h-30l-250 250-250 250 182 182 181 183 25 51 26 51 12 67 12 66-12 66-12 67-24 46c-13 26-43 69-68 97l-45 50-49 26c-52 29-103 44-173 51l-45 5-55-9zm170-254 39-27 21-42 20-42v-68l-20-40-20-41-163-163-163-162-102 103-102 104v83l127 135c165 175 197 197 281 191l42-4 40-27zm946 20 36-15 130-127c71-71 136-140 144-155l14-27v-74l-102-104-102-103-154 152-153 153-27 44-26 44v92l23 41 23 41 31 19c61 37 108 42 163 19zm184-997 30-41v-64l-29-39c-16-21-177-186-358-366l-329-328h-55l-54-1-346 351-347 350-12 30-12 30 6 25c4 14 19 39 34 55l27 30 45-16 45-15 231-230 231-229 44-20 44-20h130l45 21 45 20 236 235 235 234h20c11 0 29 7 40 15 10 8 20 15 21 15 2 0 16-19 33-42z"/></g><g fill="#04b7fd" transform="matrix(.1 0 0 -.1 0 245)"><path d="M600 2422c-25-9-61-25-80-36l-35-18-162-161-161-160-28-61-28-61v-150l27-59 27-59 106-107 105-107-55-66-54-67-22-57-22-58 4-75 4-75 27-60 28-60 367-365 367-366 50-24 50-25 80-3 80-4 60 22 60 23 358 356 358 356 33 50c18 28 39 68 46 89l13 40-1 68v68l-30 62c-17 35-50 88-75 118l-45 55 89 88c49 48 105 112 124 140l34 52 12 48 12 48-6 59-5 59-25 53-24 53-137 141-136 142-55 37c-30 20-80 45-112 56l-56 19h-133l-51-15-51-15-62-42-63-41-38-60-38-59-16-53-15-53v-129l19-56c11-32 36-81 55-109l35-53 160-160 160-159-251-253-252-253h-30l-253 252-252 252 180 183 180 183 30 65 31 65 7 55 8 55-8 55-7 55-30 63-29 62-47 48-47 48-67 32-67 31-90 3-90 3-45-18zm193-216c39-16 82-61 96-99 14-36 14-98 1-134l-11-28-137-137-137-138 80-82 80-83-82 80-83 79-35-34-35-34-90 89-90 89-16 35-16 34 11 36 10 36 138 137c76 75 152 144 168 152l30 16h86l32-14zm974 4 28-11 143-142 142-142 11-32 11-33-11-33-11-34-30-28-30-29 77-81 78-80-80 77-80 78-62-62-63-62-35 34-35 34-83-79-82-80 79 82 79 81-134 137-134 136-12 32c-6 18-12 48-12 67l-1 35 19 40c20 44 41 66 86 89l30 16h42c23 0 54-5 70-10zM1099 739l43-22 48-5 48-4 53 17 54 18 260 256c143 141 251 246 241 234l-18-22 32 9c17 5 37 14 44 19l13 11 26-28c14-15 31-40 37-56l11-29-11-31-10-31-347-347-348-347-28-11-29-10-37 10-36 9-351 353-351 353-4 25c-3 14-3 35-1 47l3 22 32 31 31 30 16-6c8-3 28-10 44-15l30-9-34 38c-19 20 85-81 230-225l265-262 44-22z"/></g><g fill="#1691ec" transform="matrix(.1 0 0 -.1 0 245)"><path d="M599 2422c-76-29-130-67-209-146l-75-76 50-43c27-23 63-56 81-74l31-31 69 69 68 69 32 15 32 15h40c75 0 140-42 168-107l14-32v-40c0-22-5-52-11-68l-10-28-60-61c-32-34-59-65-59-67 0-8 21-28 70-68 23-18 54-45 67-58l25-24 65 69 66 69 29 62 30 63 7 55 8 55-8 55-7 55-30 63-29 62-47 48-47 48-67 32-67 31-90 3-90 3-46-18zm973-1c-29-10-78-36-109-57l-57-39-37-58-38-59-16-53-15-53v-129l19-56c25-72 79-153 137-206l45-42 13 14c7 7 33 29 56 48 51 41 90 78 90 85 0 3-26 33-59 67l-58 62-12 34c-6 19-11 48-11 65v31l19 41 19 41 36 28 35 27 40 5c22 3 57 2 77-2l38-7 65-62c36-34 73-67 82-74l16-12 30 27c17 16 45 39 63 53s41 32 52 42l19 16-61 66c-72 77-149 130-227 157l-56 19h-71l-71-1-53-18zM312 1372l-52-67-21-55-21-55 4-75 4-75 27-60 28-60 367-365 367-366 50-24 50-25 80-3 80-4 60 22 60 23 358 356 358 356 33 50c18 28 39 68 46 89l13 40-1 67v68l-26 56c-14 31-46 83-72 116l-48 60-113-113c-62-62-113-114-113-115 0-5 63 17 74 26l13 11 26-28c14-15 31-40 37-56l11-29-11-31-10-31-347-347-348-347-28-11-29-10-37 10-36 9-352 353-351 353-4 25c-2 14-2 35 0 47l4 23 31 30 31 30 16-6c8-3 28-10 45-15l30-9-115 115-115 115s-24-31-53-68z"/></g><g fill="#2772df" transform="matrix(.1 0 0 -.1 0 245)"><path d="M593 2419c-29-11-53-24-53-28 0-5 19-24 43-44 23-19 62-53 87-76l45-41 25-6c75-17 127-60 156-129 9-22 20-42 24-45 9-6 86-72 140-120l34-31 14 38 13 38 1 67v67l-12 38c-7 21-23 59-36 84l-23 46-46 47-46 47-67 32-67 31-90 3-90 3-52-21zm979 2c-29-10-78-36-109-57l-57-39-37-58-38-59-16-53-15-53v-57c0-32 5-75 12-96l11-39h11c6 1 43 30 81 65 39 36 74 65 78 65s19 24 32 53l23 52 28 26c37 34 66 49 96 49h23l36 33c20 18 62 55 93 81 31 27 56 52 56 57 0 4-25 17-55 28l-56 21h-72l-72-1-53-18zM347 1415l-18-25 8-14c4-8 37-48 73-90l64-75 17 15 18 16 11-7c6-4 25-11 43-16l32-9-115 115-115 115s-8-12-18-25zm1593-90-115-115 35 10c18 5 38 14 44 20l10 10 18-17 18-17 8 10c5 5 38 43 75 85l66 75-22 27-22 28-115-116zM260 980c0-3 10-21 21-40l21-35 357-356 356-355 50-25 50-24h190l55 27 55 27 360 363 360 363 17 30 16 31-137-1-138-1-79-71c-44-39-182-175-309-302l-230-231-30-10-30-10-35 10-35 10-302 302-303 302-140 1c-77 0-140-2-140-5z"/></g><g fill="#4547d8" transform="matrix(.1 0 0 -.1 0 245)"><path d="M356 1424c-3-9-6-20-6-25 0-15 145-164 161-166 8-1 30-6 49-12l35-11-115 115c-63 63-115 115-116 115s-5-7-8-16zm1584-99-115-115 34 10c18 5 39 14 47 21l14 11v-8c0-5 36 27 80 71s80 85 80 91-6 16-13 22l-13 11-114-114zM668 543c44-49 140-146 213-218l134-130 50-25 50-25 80-3 80-4 60 22 60 23 225 223 225 224h-312l-134-128-135-129-26-6-26-7-36 13-35 12-126 123-126 122H588l80-87z"/></g><g fill="#0a5682" transform="matrix(.1 0 0 -.1 0 245)"><path d="M356 1424c-3-9-6-20-6-25 0-15 145-164 161-166 8-1 30-6 49-12l35-11-115 115c-63 63-115 115-116 115s-5-7-8-16zm1584-99-115-115 34 10c18 5 39 14 47 21l14 11v-8c0-5 36 27 80 71s80 85 80 91-6 16-13 22l-13 11-114-114z"/></g></g></svg>