<svg id="Layer_1" data-name="Layer 1" xmlns="http://www.w3.org/2000/svg" viewBox="0 0 512 512"><defs><style>.cls-1{fill:#d9e4e8;}.cls-1,.cls-2{fill-rule:evenodd;}.cls-2{fill:#79d3d3;}.cls-3{opacity:0.14;}.cls-4{fill:#17292d;}.cls-5{fill:#141f38;}</style></defs><title>envelope-add-filled</title><path class="cls-1" d="M448,166.4H359.21a115.23,115.23,0,0,1-206.43,0H64a51.26,51.26,0,0,0-51.2,51.2V448A51.26,51.26,0,0,0,64,499.2H448A51.26,51.26,0,0,0,499.2,448V217.6A51.26,51.26,0,0,0,448,166.4Z"/><path class="cls-2" d="M256,217.6a102.4,102.4,0,1,1,102.4-102.4A102.52,102.52,0,0,1,256,217.6Z"/><g class="cls-3"><path class="cls-4" d="M19.31,171.94A63.79,63.79,0,0,0,0,217.6v9.24L217.6,384l12.14-12.14Z"/></g><g class="cls-3"><path class="cls-4" d="M492.69,171.94,282.26,371.86,294.4,384,512,226.84V217.6A63.79,63.79,0,0,0,492.69,171.94Z"/></g><path class="cls-5" d="M217.6,115.2a12.8,12.8,0,0,1,12.8-12.8h12.8V89.6a12.8,12.8,0,0,1,25.6,0v12.8h12.8a12.8,12.8,0,1,1,0,25.6H268.8v12.8a12.8,12.8,0,0,1-25.6,0V128H230.4A12.8,12.8,0,0,1,217.6,115.2ZM512,217.6V448a64.19,64.19,0,0,1-64,64H64A64.19,64.19,0,0,1,0,448V217.6a64.19,64.19,0,0,1,64-64h83.36a115.2,115.2,0,1,1,217.27,0H448A64.19,64.19,0,0,1,512,217.6ZM482.64,201l-149,149L481.68,466.42A38.16,38.16,0,0,0,486.4,448V217.6A38.17,38.17,0,0,0,482.64,201ZM166.39,115.2A89.6,89.6,0,1,0,256,25.6,89.7,89.7,0,0,0,166.39,115.2ZM64,179.2A38.17,38.17,0,0,0,47.45,183L219.79,355.29a51.25,51.25,0,0,0,72.41,0L464.54,183A38.17,38.17,0,0,0,448,179.2H351.79a115.22,115.22,0,0,1-191.59,0ZM178.38,350.08l-149-149A38.17,38.17,0,0,0,25.6,217.6V448a38.16,38.16,0,0,0,4.71,18.42ZM448,486.4a38.18,38.18,0,0,0,14.2-2.73L315.38,368.31l-5.09,5.09a76.89,76.89,0,0,1-108.61,0l-5.08-5.08L49.79,483.66A38.18,38.18,0,0,0,64,486.4Z"/></svg>